# ASF file generated by Tido's ASF writer for MATLAB.
:version 1.10
:name VICON
:units
  mass 1
  length 0.45000000000000001
  angle deg
:documentation
   .ast/.asf automatically generated from VICON data using
   VICON BodyBuilder and BodyLanguage model FoxedUp or BRILLIANT.MOD
:root
  axis xyz
  order tx ty tz rx ry rz 
  position 0 0 0
  orientation 0 0 0
:bonedata
  begin
    id 1
    name lhipjoint
    direction 0.44017800000000001 -0.82263900000000001 0.359871
    length 1.1390085000000001
    axis 0 0 0 xyz
  end
  begin
    id 2
    name lfemur
    direction 0.34201999999999999 -0.939693 0
    length 3.5465939999999998
    axis 0 0 20 xyz
    dof rx ry rz 
    limits (-160 20)
           (-70 70)
           (-60 70)
  end
  begin
    id 3
    name ltibia
    direction 0.34201999999999999 -0.939693 0
    length 3.7970234999999999
    axis 0 0 20 xyz
    dof rx 
    limits (-10 170)
  end
  begin
    id 4
    name lfoot
    direction 0.088635099999999994 -0.24352299999999999 0.96583699999999995
    length 1.1853629999999999
    axis -90 7.62852e-016 20 xyz
    dof rx rz 
    limits (-45 90)
           (-70 20)
  end
  begin
    id 5
    name ltoes
    direction 1.53703e-011 -4.2171700000000001e-011 1
    length 0.59142150000000004
    axis -90 7.62852e-016 20 xyz
    dof rx 
    limits (-90 20)
  end
  begin
    id 6
    name rhipjoint
    direction -0.399779 -0.83977299999999999 0.367367
    length 1.115766
    axis 0 0 0 xyz
  end
  begin
    id 7
    name rfemur
    direction -0.34201999999999999 -0.939693 0
    length 3.4866269999999999
    axis 0 0 -20 xyz
    dof rx ry rz 
    limits (-160 20)
           (-70 70)
           (-70 60)
  end
  begin
    id 8
    name rtibia
    direction -0.34201999999999999 -0.939693 0
    length 3.9349440000000002
    axis 0 0 -20 xyz
    dof rx 
    limits (-10 170)
  end
  begin
    id 9
    name rfoot
    direction -0.108514 -0.29813899999999999 0.94833400000000001
    length 1.1974590000000001
    axis -90 -7.62852e-016 -20 xyz
    dof rx rz 
    limits (-45 90)
           (-20 70)
  end
  begin
    id 10
    name rtoes
    direction -1.5339199999999999e-011 -4.2207699999999999e-011 1
    length 0.59392350000000005
    axis -90 -7.62852e-016 -20 xyz
    dof rx 
    limits (-90 20)
  end
  begin
    id 11
    name lowerback
    direction 0.011325699999999999 0.99986600000000003 0.0118602
    length 1.164123
    axis 0 0 0 xyz
    dof rx ry rz 
    limits (-20 45)
           (-30 30)
           (-30 30)
  end
  begin
    id 12
    name upperback
    direction -0.016474699999999998 0.99519299999999999 -0.096537499999999998
    length 1.135656
    axis 0 0 0 xyz
    dof rx ry rz 
    limits (-20 45)
           (-30 30)
           (-30 30)
  end
  begin
    id 13
    name thorax
    direction -0.019430099999999999 0.99433000000000005 -0.10455200000000001
    length 1.1524455
    axis 0 0 0 xyz
    dof rx ry rz 
    limits (-20 45)
           (-30 30)
           (-30 30)
  end
  begin
    id 14
    name lowerneck
    direction 0.014854300000000001 0.995587 -0.092657000000000003
    length 0.772119
    axis 0 0 0 xyz
    dof rx ry rz 
    limits (-20 45)
           (-30 30)
           (-30 30)
  end
  begin
    id 15
    name upperneck
    direction -0.0135467 0.99365599999999998 -0.111639
    length 0.76021650000000007
    axis 0 0 0 xyz
    dof rx ry rz 
    limits (-20 45)
           (-30 30)
           (-30 30)
  end
  begin
    id 16
    name head
    direction -0.0061534900000000002 0.99954699999999996 -0.029447999999999998
    length 0.78578999999999999
    axis 0 0 0 xyz
    dof rx ry rz 
    limits (-20 45)
           (-30 30)
           (-30 30)
  end
  begin
    id 17
    name lclavicle
    direction 0.98826700000000001 0.14988499999999999 0.029371299999999999
    length 2.012499
    axis 0 0 0 xyz
    dof ry rz 
    limits (-20 10)
           (0 20)
  end
  begin
    id 18
    name lhumerus
    direction 1 -4.4898600000000001e-011 -1.1483300000000001e-027
    length 2.4171659999999999
    axis 180 -30 -90 xyz
    dof rx ry rz 
    limits (-60 90)
           (-90 90)
           (-90 90)
  end
  begin
    id 19
    name lradius
    direction 0.99999800000000005 0.00170963 -0.00098705499999999992
    length 1.773954
    axis 180 -30 -90 xyz
    dof rx 
    limits (-10 170)
  end
  begin
    id 20
    name lwrist
    direction 0.99999800000000005 7.53149e-005 -0.00194706
    length 0.88697700000000002
    axis 4.6505600000000004e-015 90 90 xyz
    dof ry 
    limits (-180 0)
  end
  begin
    id 21
    name lhand
    direction 1 -4.48973e-011 -1.3174599999999999e-026
    length 0.5306265
    axis 8.4064999999999996e-015 90 90 xyz
    dof rx rz 
    limits (-90 90)
           (-45 45)
  end
  begin
    id 22
    name lfingers
    direction 1 -4.49107e-011 -2.6349199999999999e-026
    length 0.42780555000000003
    axis 1.6812999999999999e-014 90 90 xyz
    dof rx 
    limits (0 90)
  end
  begin
    id 23
    name lthumb
    direction 0.70710700000000004 -6.3504800000000005e-011 0.70710700000000004
    length 0.6142455
    axis -90 45 2.8529899999999998e-015 xyz
    dof rx rz 
    limits (-45 45)
           (-45 45)
  end
  begin
    id 24
    name rclavicle
    direction -0.996699 0.064289499999999999 -0.049572499999999999
    length 2.0817494999999999
    axis 0 0 0 xyz
    dof ry rz 
    limits (-10 20)
           (-20 0)
  end
  begin
    id 25
    name rhumerus
    direction -1 -4.4891899999999998e-011 -2.4105900000000001e-027
    length 2.474145
    axis 180 30 90 xyz
    dof rx ry rz 
    limits (-90 60)
           (-90 90)
           (-90 90)
  end
  begin
    id 26
    name rradius
    direction -0.99999899999999997 0.0011810099999999999 -0.00068185800000000003
    length 1.5677145000000001
    axis 180 30 90 xyz
    dof rx 
    limits (-10 170)
  end
  begin
    id 27
    name rwrist
    direction -0.99999899999999997 0.000321823 -0.00132288
    length 0.78385499999999997
    axis 4.6505600000000004e-015 -90 -90 xyz
    dof ry 
    limits (-180 0)
  end
  begin
    id 28
    name rhand
    direction -1 -4.4902199999999998e-011 -1.3174599999999999e-026
    length 0.60719400000000001
    axis 8.4064999999999996e-015 -90 -90 xyz
    dof rx rz 
    limits (-90 90)
           (-45 45)
  end
  begin
    id 29
    name rfingers
    direction -1 -4.4917800000000002e-011 -2.6349199999999999e-026
    length 0.48953249999999998
    axis 1.6812999999999999e-014 -90 -90 xyz
    dof rx 
    limits (0 90)
  end
  begin
    id 30
    name rthumb
    direction -0.70710700000000004 -6.3471300000000002e-011 0.70710700000000004
    length 0.70287750000000004
    axis -90 -45 -2.8529899999999998e-015 xyz
    dof rx rz 
    limits (-45 45)
           (-45 45)
  end
:hierarchy
begin
  root lhipjoint rhipjoint lowerback 
  lhipjoint lfemur 
  lfemur ltibia 
  ltibia lfoot 
  lfoot ltoes 
  rhipjoint rfemur 
  rfemur rtibia 
  rtibia rfoot 
  rfoot rtoes 
  lowerback upperback 
  upperback thorax 
  thorax lowerneck lclavicle rclavicle 
  lowerneck upperneck 
  upperneck head 
  lclavicle lhumerus 
  lhumerus lradius 
  lradius lwrist 
  lwrist lhand lthumb 
  lhand lfingers 
  rclavicle rhumerus 
  rhumerus rradius 
  rradius rwrist 
  rwrist rhand rthumb 
  rhand rfingers 
end

# AMC file generated by Tido's AMC writer for MATLAB on 27-Nov-2005 at 18:24:20
# Corresponding ASF file: S:\data_MoCap\MoCaDaDB\HDM\Bonn_ASF_AMC_Use IK_on\björn\bjorn.asf
# Number of frames: 542
# Sampling rate: 120
:fully-specified
:degrees
492
root 13.876605 8.5172849999999993 -1.5472665000000001 -3.9094799999999998 9.83596 357.68799999999999 
lfemur -23.720199999999998 3.6373000000000002 -16.164899999999999 
ltibia 35.962200000000003 
lfoot -3.0552899999999998 -9.6106999999999996 
ltoes -11.5898 
rfemur 7.1649700000000003 -5.6367500000000001 19.622499999999999 
rtibia 33.412100000000002 
rfoot -13.626799999999999 21.009399999999999 
rtoes -4.8771000000000004 
lowerback -4.1356999999999999 2.1494499999999999 2.4792999999999998 
upperback 10.9527 2.85263 -1.1936199999999999 
thorax 14.541399999999999 1.7461800000000001 -2.2248100000000002 
lowerneck 1.8673599999999999 -4.54338 -0.33002199999999998 
upperneck 18.421700000000001 -6.8116500000000002 4.9053599999999999 
head 5.4263500000000002 -3.0115799999999999 1.30976 
lclavicle -1.3914900000000001e-015 -4.3732600000000004e-015 
lhumerus -22.787199999999999 35.785800000000002 74.783299999999997 
lradius 9.8837899999999994 
lwrist -67.289000000000001 
lhand -11.4718 -6.1313300000000002 
lfingers 7.1250200000000001 
lthumb 14.565899999999999 23.337199999999999 
rclavicle -1.3914900000000001e-015 -4.3732600000000004e-015 
rhumerus -24.988199999999999 -17.1646 -87.7761 
rradius 39.396999999999998 
rwrist 4.6428000000000003 
rhand -12.002000000000001 13.2744 
rfingers 7.1250200000000001 
rthumb 14.055 -16.2303 
493
root 13.892669999999999 8.5216950000000011 -1.5052274999999999 -3.8883999999999999 9.6882000000000001 357.81900000000002 
lfemur -23.385100000000001 3.7327699999999999 -16.340399999999999 
ltibia 36.008699999999997 
lfoot -3.3194300000000001 -9.6082999999999998 
ltoes -11.507300000000001 
rfemur 6.9812599999999998 -5.3934499999999996 19.3855 
rtibia 34.1554 
rfoot -12.8504 21.043099999999999 
rtoes -5.2790600000000003 
lowerback -4.1043700000000003 2.0947200000000001 2.12405 
upperback 10.976800000000001 2.8319399999999999 -1.30376 
thorax 14.5326 1.7050399999999999 -2.1532499999999999 
lowerneck 1.7926299999999999 -4.5030599999999996 -0.54379599999999995 
upperneck 18.544599999999999 -6.7924600000000002 5.1116999999999999 
head 5.4901900000000001 -3.0006200000000001 1.4071800000000001 
lclavicle -6.1026899999999996e-014 4.9298600000000002e-014 
lhumerus -21.7193 36.079599999999999 75.096500000000006 
lradius 9.7438699999999994 
lwrist -67.273300000000006 
lhand -11.513299999999999 -5.9200600000000003 
lfingers 7.1250200000000001 
lthumb 14.526 23.551400000000001 
rclavicle -6.1026899999999996e-014 4.9298600000000002e-014 
rhumerus -25.125399999999999 -17.7056 -87.616 
rradius 37.808199999999999 
rwrist 5.2267299999999999 
rhand -11.954499999999999 12.853999999999999 
rfingers 7.1250200000000001 
rthumb 14.1008 -16.647500000000001 
494
root 13.90842 8.5274099999999997 -1.4634944999999999 -3.8656700000000002 9.5287100000000002 357.90699999999998 
lfemur -23.049099999999999 3.9120200000000001 -16.471699999999998 
ltibia 36.020099999999999 
lfoot -3.57687 -9.6735100000000003 
ltoes -11.6784 
rfemur 6.7548899999999996 -5.1419600000000001 19.200099999999999 
rtibia 34.934399999999997 
rfoot -11.988300000000001 21.0441 
rtoes -5.6138000000000003 
lowerback -4.0823200000000002 2.0437400000000001 1.82209 
upperback 10.9948 2.80877 -1.40503 
thorax 14.5258 1.6678599999999999 -2.1017000000000001 
lowerneck 1.7563299999999999 -4.4680400000000002 -0.70285799999999998 
upperneck 18.6099 -6.7700199999999997 5.26363 
head 5.5258599999999998 -2.9898899999999999 1.4803900000000001 
lclavicle -3.5781199999999999e-014 3.1010400000000002e-014 
lhumerus -20.811800000000002 36.313699999999997 75.314499999999995 
lradius 9.7675099999999997 
lwrist -67.187299999999993 
lhand -11.5433 -5.8153100000000002 
lfingers 7.1250200000000001 
lthumb 14.4971 23.658200000000001 
rclavicle -3.5781199999999999e-014 3.1010400000000002e-014 
rhumerus -25.123799999999999 -18.309200000000001 -87.471599999999995 
rradius 36.078699999999998 
rwrist 5.9283000000000001 
rhand -11.8681 12.460800000000001 
rfingers 7.1250200000000001 
rthumb 14.184100000000001 -17.035 
495
root 13.92435 8.5333500000000004 -1.4223060000000001 -3.83969 9.3835999999999995 358.017 
lfemur -22.704599999999999 4.10602 -16.6266 
ltibia 36.007399999999997 
lfoot -3.80755 -9.7833900000000007 
ltoes -11.4892 
rfemur 6.4886499999999998 -4.9136300000000004 18.979500000000002 
rtibia 35.752000000000002 
rfoot -11.018599999999999 21.058199999999999 
rtoes -5.9019000000000004 
lowerback -4.04495 1.9930600000000001 1.5089600000000001 
upperback 11.0092 2.7901899999999999 -1.5299799999999999 
thorax 14.5067 1.6333899999999999 -2.0698599999999998 
lowerneck 1.6856199999999999 -4.4316500000000003 -0.77307300000000001 
upperneck 18.7029 -6.74709 5.3915699999999998 
head 5.5724400000000003 -2.9732400000000001 1.5305899999999999 
lclavicle 4.4925299999999998e-014 -3.4986099999999999e-014 
lhumerus -19.937899999999999 36.519199999999998 75.483599999999996 
lradius 9.8700399999999995 
lwrist -67.067700000000002 
lhand -11.5404 -5.7812900000000003 
lfingers 7.1250200000000001 
lthumb 14.4999 23.692 
rclavicle 4.4925299999999998e-014 -3.4986099999999999e-014 
rhumerus -25.154800000000002 -18.879200000000001 -87.295500000000004 
rradius 34.396299999999997 
rwrist 6.6252599999999999 
rhand -11.608599999999999 12.0932 
rfingers 7.1250200000000001 
rthumb 14.434200000000001 -17.384799999999998 
496
root 13.9392 8.539695 -1.3818059999999999 -3.80599 9.2455499999999997 358.10300000000001 
lfemur -22.3721 4.3138800000000002 -16.753699999999998 
ltibia 35.984299999999998 
lfoot -4.0892299999999997 -9.8878400000000006 
ltoes -11.4719 
rfemur 6.1582400000000002 -4.73292 18.7746 
rtibia 36.615200000000002 
rfoot -9.9108499999999999 21.050799999999999 
rtoes -6.1227499999999999 
lowerback -4.0219100000000001 1.9234100000000001 1.1694 
upperback 11.0311 2.7443399999999998 -1.62175 
thorax 14.5008 1.58043 -1.99048 
lowerneck 1.5708599999999999 -4.3877199999999998 -0.902061 
upperneck 18.814599999999999 -6.7143899999999999 5.52196 
head 5.6338200000000001 -2.9543699999999999 1.59063 
lclavicle -2.9420099999999997e-014 7.9513899999999992e-015 
lhumerus -19.040700000000001 36.784700000000001 75.679100000000005 
lradius 9.9767499999999991 
lwrist -66.860200000000006 
lhand -11.551500000000001 -5.7424799999999996 
lfingers 7.1250200000000001 
lthumb 14.489100000000001 23.7316 
rclavicle -2.9420099999999997e-014 7.9513899999999992e-015 
rhumerus -25.146699999999999 -19.530999999999999 -87.099000000000004 
rradius 32.687100000000001 
rwrist 7.4083399999999999 
rhand -11.2552 11.854200000000001 
rfingers 7.1250200000000001 
rthumb 14.774699999999999 -17.5992 
497
root 13.954185000000001 8.5455900000000007 -1.3418099999999999 -3.77427 9.0986600000000006 358.19200000000001 
lfemur -22.0259 4.4469500000000002 -16.874300000000002 
ltibia 35.9514 
lfoot -4.3537999999999997 -9.9248499999999993 
ltoes -11.3626 
rfemur 5.7800500000000001 -4.5684800000000001 18.542200000000001 
rtibia 37.535600000000002 
rfoot -8.6765399999999993 21.064 
rtoes -5.8251200000000001 
lowerback -3.9977900000000002 1.8592200000000001 0.85266500000000001 
upperback 11.052 2.7040600000000001 -1.7199899999999999 
thorax 14.4963 1.5331600000000001 -1.9300600000000001 
lowerneck 1.5065999999999999 -4.3464299999999998 -1.01095 
upperneck 18.891200000000001 -6.6822999999999997 5.64757 
head 5.6748700000000003 -2.93648 1.6474899999999999 
lclavicle 2.0276000000000001e-014 -9.5416600000000005e-015 
lhumerus -18.300599999999999 36.993499999999997 75.731300000000005 
lradius 10.2044 
lwrist -66.579800000000006 
lhand -11.6472 -5.8478000000000003 
lfingers 7.1250200000000001 
lthumb 14.3969 23.632899999999999 
rclavicle 2.0276000000000001e-014 -9.5416600000000005e-015 
rhumerus -25.2178 -20.1173 -86.866100000000003 
rradius 31.117999999999999 
rwrist 8.1865100000000002 
rhand -10.814399999999999 11.5101 
rfingers 7.1250200000000001 
rthumb 15.199299999999999 -17.9116 
498
root 13.968495000000001 8.5515299999999996 -1.3024485000000001 -3.7269299999999999 8.9643899999999999 358.30099999999999 
lfemur -21.690799999999999 4.5823900000000002 -17.020399999999999 
ltibia 35.896099999999997 
lfoot -4.6235999999999997 -9.9635300000000004 
ltoes -11.3504 
rfemur 5.3410399999999996 -4.4452699999999998 18.283100000000001 
rtibia 38.4955 
rfoot -7.3590999999999998 21.052600000000002 
rtoes -5.5125400000000004 
lowerback -3.97234 1.7823500000000001 0.50822900000000004 
upperback 11.0677 2.6515900000000001 -1.83724 
thorax 14.4846 1.47834 -1.87731 
lowerneck 1.4646699999999999 -4.2969299999999997 -1.0230900000000001 
upperneck 18.9298 -6.6321899999999996 5.7217500000000001 
head 5.6948699999999999 -2.90802 1.6739299999999999 
lclavicle -2.7233499999999999e-014 1.74931e-014 
lhumerus -17.300799999999999 36.306899999999999 76.221299999999999 
lradius 10.430400000000001 
lwrist -65.448400000000007 
lhand -11.879099999999999 -5.7678500000000001 
lfingers 7.1250200000000001 
lthumb 14.1736 23.7286 
rclavicle -2.7233499999999999e-014 1.74931e-014 
rhumerus -25.2303 -20.994199999999999 -86.645799999999994 
rradius 29.487500000000001 
rwrist 9.2999200000000002 
rhand -10.408200000000001 11.208 
rfingers 7.1250200000000001 
rthumb 15.5905 -18.183700000000002 
499
root 13.982850000000001 8.5574700000000004 -1.2636989999999999 -3.6776399999999998 8.8168799999999994 358.36799999999999 
lfemur -21.365200000000002 4.6538899999999996 -17.113700000000001 
ltibia 35.833399999999997 
lfoot -4.9093999999999998 -9.92239 
ltoes -11.267099999999999 
rfemur 4.8378500000000004 -4.3263800000000003 18.0535 
rtibia 39.5032 
rfoot -5.9661499999999998 21.022500000000001 
rtoes -5.09511 
lowerback -3.95391 1.7255499999999999 0.221551 
upperback 11.0778 2.6180599999999998 -1.9399299999999999 
thorax 14.474399999999999 1.4378200000000001 -1.83728 
lowerneck 1.4515199999999999 -4.2719899999999997 -1.02711 
upperneck 18.967199999999998 -6.6122300000000003 5.7796900000000004 
head 5.7100499999999998 -2.8950300000000002 1.6932100000000001 
lclavicle -4.0552100000000002e-014 6.3611099999999997e-015 
lhumerus -16.233000000000001 35.343800000000002 76.748999999999995 
lradius 10.651300000000001 
lwrist -64.048299999999998 
lhand -12.0349 -5.7655399999999997 
lfingers 7.1250200000000001 
lthumb 14.023400000000001 23.741399999999999 
rclavicle -4.0552100000000002e-014 6.3611099999999997e-015 
rhumerus -25.294 -21.931899999999999 -86.331999999999994 
rradius 27.9253 
rwrist 10.4781 
rhand -9.9492399999999996 10.9407 
rfingers 7.1250200000000001 
rthumb 16.032499999999999 -18.416 
